# 3ds Max Wavefront OBJ Exporter v0.99 - (c)2007 guruware
# File Created: 23.07.2026 21:29:24

mtllib Outside_Crystal.mtl

#
# object Crystal
#

v  2.4751 8.6224 -4.0814
v  -0.0883 8.6224 -4.0814
v  2.4751 12.8512 0.0282
v  -2.3561 8.6224 -1.5415
v  -2.3561 8.6224 1.5980
v  -0.0883 8.6224 4.1379
v  2.4751 8.6224 4.1379
v  5.0384 8.6224 4.1379
v  7.3062 8.6224 1.5980
v  7.3062 8.6224 -1.5415
v  5.0384 8.6224 -4.0814
v  2.4751 3.2935 -6.6213
v  -1.9493 3.2935 -6.6213
v  -5.3419 3.2935 -2.5117
v  -5.3419 3.2935 2.5681
v  -1.9493 3.2935 6.6777
v  2.4751 3.2935 6.6777
v  6.8994 3.2935 6.6777
v  10.2920 3.2935 2.5681
v  10.2920 3.2935 -2.5117
v  6.8994 3.2935 -6.6213
v  2.4751 -3.2935 -6.6213
v  -1.9493 -3.2935 -6.6213
v  -5.3419 -3.2935 -2.5117
v  -5.3419 -3.2935 2.5681
v  -1.9493 -3.2935 6.6777
v  2.4751 -3.2935 6.6777
v  6.8994 -3.2935 6.6777
v  10.2920 -3.2935 2.5681
v  10.2920 -3.2935 -2.5117
v  6.8994 -3.2935 -6.6213
v  2.4751 -8.6224 -4.0814
v  -0.0883 -8.6224 -4.0814
v  -2.3561 -8.6224 -1.5415
v  -2.3561 -8.6224 1.5980
v  -0.0883 -8.6224 4.1379
v  2.4751 -8.6224 4.1379
v  5.0384 -8.6224 4.1379
v  7.3062 -8.6224 1.5980
v  7.3062 -8.6224 -1.5415
v  5.0384 -8.6224 -4.0814
v  2.4751 -12.8512 0.0282
# 42 vertices

vn -0.0000 0.6468 -0.7626
vn -0.2845 0.6841 -0.6716
vn 0.0000 1.0000 -0.0000
vn -0.6670 0.6994 -0.2568
vn -0.6670 0.6994 0.2568
vn -0.2845 0.6841 0.6716
vn 0.0000 0.6468 0.7626
vn 0.2845 0.6841 0.6716
vn 0.6670 0.6994 0.2568
vn 0.6670 0.6994 -0.2568
vn 0.2845 0.6841 -0.6716
vn -0.0000 0.2626 -0.9649
vn -0.4175 0.2847 -0.8629
vn -0.9008 0.2910 -0.3224
vn -0.9008 0.2910 0.3224
vn -0.4175 0.2847 0.8629
vn -0.0000 0.2626 0.9649
vn 0.4175 0.2847 0.8629
vn 0.9008 0.2910 0.3224
vn 0.9008 0.2910 -0.3224
vn 0.4175 0.2847 -0.8629
vn -0.0000 -0.2626 -0.9649
vn -0.4175 -0.2847 -0.8629
vn -0.9008 -0.2910 -0.3224
vn -0.9008 -0.2910 0.3224
vn -0.4175 -0.2847 0.8629
vn -0.0000 -0.2626 0.9649
vn 0.4175 -0.2847 0.8629
vn 0.9008 -0.2910 0.3224
vn 0.9008 -0.2910 -0.3224
vn 0.4175 -0.2847 -0.8629
vn -0.0000 -0.6468 -0.7626
vn -0.2845 -0.6841 -0.6716
vn -0.6670 -0.6994 -0.2568
vn -0.6670 -0.6994 0.2568
vn -0.2845 -0.6841 0.6716
vn 0.0000 -0.6468 0.7626
vn 0.2845 -0.6841 0.6716
vn 0.6670 -0.6994 0.2568
vn 0.6670 -0.6994 -0.2568
vn 0.2845 -0.6841 -0.6716
vn 0.0000 -1.0000 0.0000
# 42 vertex normals

vt 0.2473 0.4022 0.0000
vt 0.3148 0.4073 0.0000
vt 0.2480 0.5166 0.0000
vt 0.3742 0.4744 0.0000
vt 0.3747 0.5572 0.0000
vt 0.3161 0.6251 0.0000
vt 0.2487 0.6310 0.0000
vt 0.1813 0.6259 0.0000
vt 0.1218 0.5588 0.0000
vt 0.1213 0.4760 0.0000
vt 0.1799 0.4081 0.0000
vt 0.3567 0.3938 0.0000
vt 0.3566 0.2751 0.0000
vt 0.4614 0.2750 0.0000
vt 0.4174 0.3937 0.0000
vt 0.8302 0.4069 0.0000
vt 0.8122 0.2816 0.0000
vt 0.9383 0.2818 0.0000
vt 0.9108 0.4053 0.0000
vt 0.0529 0.9636 0.0000
vt 0.0296 0.8393 0.0000
vt 0.1499 0.8390 0.0000
vt 0.1272 0.9634 0.0000
vt 0.7250 0.7231 0.0000
vt 0.6985 0.5995 0.0000
vt 0.8247 0.6002 0.0000
vt 0.8056 0.7253 0.0000
vt 0.0724 0.3937 0.0000
vt 0.0294 0.2747 0.0000
vt 0.1341 0.2756 0.0000
vt 0.1331 0.3942 0.0000
vt 0.2389 0.2765 0.0000
vt 0.1938 0.3948 0.0000
vt 0.6200 0.4069 0.0000
vt 0.6002 0.2819 0.0000
vt 0.7264 0.2803 0.0000
vt 0.7005 0.4041 0.0000
vt 0.6087 0.9700 0.0000
vt 0.5858 0.8456 0.0000
vt 0.7061 0.8457 0.0000
vt 0.6830 0.9701 0.0000
vt 0.8522 0.9343 0.0000
vt 0.8250 0.8108 0.0000
vt 0.9512 0.8109 0.0000
vt 0.9327 0.9362 0.0000
vt 0.2960 0.3938 0.0000
vt 0.2519 0.2752 0.0000
vt 0.3565 0.1487 0.0000
vt 0.4613 0.1486 0.0000
vt 0.8124 0.1552 0.0000
vt 0.9386 0.1554 0.0000
vt 0.0294 0.7128 0.0000
vt 0.1496 0.7126 0.0000
vt 0.6992 0.4730 0.0000
vt 0.8254 0.4737 0.0000
vt 0.0304 0.1482 0.0000
vt 0.1352 0.1491 0.0000
vt 0.2399 0.1500 0.0000
vt 0.5987 0.1554 0.0000
vt 0.7248 0.1539 0.0000
vt 0.5860 0.7191 0.0000
vt 0.7062 0.7193 0.0000
vt 0.8251 0.6843 0.0000
vt 0.9513 0.6845 0.0000
vt 0.2518 0.1488 0.0000
vt 0.3564 0.0300 0.0000
vt 0.4171 0.0299 0.0000
vt 0.8309 0.0299 0.0000
vt 0.9115 0.0319 0.0000
vt 0.0521 0.5884 0.0000
vt 0.1264 0.5883 0.0000
vt 0.7272 0.3497 0.0000
vt 0.8079 0.3484 0.0000
vt 0.0755 0.0299 0.0000
vt 0.1362 0.0305 0.0000
vt 0.1969 0.0310 0.0000
vt 0.6155 0.0299 0.0000
vt 0.6961 0.0307 0.0000
vt 0.6091 0.5948 0.0000
vt 0.6834 0.5949 0.0000
vt 0.8526 0.5609 0.0000
vt 0.9332 0.5592 0.0000
vt 0.2957 0.0301 0.0000
vt 0.5127 0.4948 0.0000
vt 0.5804 0.6036 0.0000
vt 0.5130 0.6092 0.0000
vt 0.6393 0.5360 0.0000
vt 0.6391 0.4532 0.0000
vt 0.5799 0.3858 0.0000
vt 0.5125 0.3804 0.0000
vt 0.4451 0.3861 0.0000
vt 0.3862 0.4537 0.0000
vt 0.3863 0.5364 0.0000
vt 0.4455 0.6039 0.0000
# 94 texture coords

o Crystal
g Crystal
usemtl 02___Default
s 1
f 1/1/1 2/2/2 3/3/3 
f 3/3/3 2/2/2 4/4/4 
f 3/3/3 4/4/4 5/5/5 
f 5/5/5 6/6/6 3/3/3 
f 3/3/3 6/6/6 7/7/7 
f 7/7/7 8/8/8 3/3/3 
f 3/3/3 8/8/8 9/9/9 
f 3/3/3 9/9/9 10/10/10 
f 10/10/10 11/11/11 3/3/3 
f 3/3/3 11/11/11 1/1/1 
f 1/12/1 12/13/12 13/14/13 2/15/2 
f 2/16/2 13/17/13 14/18/14 4/19/4 
f 4/20/4 14/21/14 15/22/15 5/23/5 
f 5/24/5 15/25/15 16/26/16 6/27/6 
f 6/28/6 16/29/16 17/30/17 7/31/7 
f 7/31/7 17/30/17 18/32/18 8/33/8 
f 8/34/8 18/35/18 19/36/19 9/37/9 
f 9/38/9 19/39/19 20/40/20 10/41/10 
f 10/42/10 20/43/20 21/44/21 11/45/11 
f 11/46/11 21/47/21 12/13/12 1/12/1 
s 2
f 12/13/12 22/48/22 23/49/23 13/14/13 
f 13/17/13 23/50/23 24/51/24 14/18/14 
s 4
f 14/21/14 24/52/24 25/53/25 15/22/15 
s 2
f 15/25/15 25/54/25 26/55/26 16/26/16 
f 16/29/16 26/56/26 27/57/27 17/30/17 
f 17/30/17 27/57/27 28/58/28 18/32/18 
f 18/35/18 28/59/28 29/60/29 19/36/19 
s 4
f 19/39/19 29/61/29 30/62/30 20/40/20 
s 2
f 20/43/20 30/63/30 31/64/31 21/44/21 
f 21/47/21 31/65/31 22/48/22 12/13/12 
s 1
f 22/48/22 32/66/32 33/67/33 23/49/23 
f 23/50/23 33/68/33 34/69/34 24/51/24 
f 24/52/24 34/70/34 35/71/35 25/53/25 
f 25/54/25 35/72/35 36/73/36 26/55/26 
f 26/56/26 36/74/36 37/75/37 27/57/27 
f 27/57/27 37/75/37 38/76/38 28/58/28 
f 28/59/28 38/77/38 39/78/39 29/60/29 
f 29/61/29 39/79/39 40/80/40 30/62/30 
f 30/63/30 40/81/40 41/82/41 31/64/31 
f 31/65/31 41/83/41 32/66/32 22/48/22 
f 42/84/42 33/85/33 32/86/32 
f 42/84/42 34/87/34 33/85/33 
f 42/84/42 35/88/35 34/87/34 
f 42/84/42 36/89/36 35/88/35 
f 42/84/42 37/90/37 36/89/36 
f 42/84/42 38/91/38 37/90/37 
f 42/84/42 39/92/39 38/91/38 
f 42/84/42 40/93/40 39/92/39 
f 42/84/42 41/94/41 40/93/40 
f 42/84/42 32/86/32 41/94/41 
# 30 polygons - 20 triangles

