# 3ds Max Wavefront OBJ Exporter v0.99 - (c)2007 guruware
# File Created: 23.07.2026 21:30:04

mtllib 2X.mtl

#
# object 2X_Text
#

v  -14.2148 -2.2713 0.1569
v  -11.9176 -2.2713 0.1569
v  -11.9176 -1.7154 0.1569
v  -14.2227 -1.7154 0.1569
v  -9.7501 0.1618 0.1569
v  -11.5523 -2.2713 0.1569
v  -10.8071 -2.2713 0.1569
v  -9.4029 -0.3156 0.1569
v  -14.9164 1.0859 -0.2052
v  -14.3240 1.0859 -0.2052
v  -14.3240 1.0859 0.1569
v  -14.9164 1.0859 0.1569
v  -14.3240 1.5577 -0.2052
v  -14.3240 1.5577 0.1569
v  -13.9664 1.9180 -0.2052
v  -13.9664 1.9180 0.1569
v  -13.0266 1.9180 -0.2052
v  -13.0266 1.9180 0.1569
v  -12.7629 1.5787 -0.2052
v  -12.7629 1.5787 0.1569
v  -12.7553 0.6625 -0.2052
v  -12.7553 0.6625 0.1569
v  -15.0262 -1.7154 -0.2052
v  -15.0262 -1.7154 0.1569
v  -15.0262 -2.2713 -0.2052
v  -15.0262 -2.2713 0.1569
v  -14.2475 -2.2713 -0.2052
v  -11.9176 -2.2713 -0.2052
v  -11.9176 -1.7154 -0.2052
v  -14.2227 -1.7154 -0.2052
v  -12.1101 0.6622 -0.2052
v  -12.1101 0.6622 0.1569
v  -12.1261 1.7284 -0.2052
v  -12.1261 1.7284 0.1569
v  -12.7394 2.4606 -0.2052
v  -12.7394 2.4606 0.1569
v  -14.1935 2.4606 -0.2052
v  -14.1935 2.4606 0.1569
v  -14.9164 1.7676 -0.2052
v  -14.9164 1.7676 0.1569
v  -9.7501 0.1618 -0.2052
v  -11.5523 -2.2713 -0.2052
v  -10.8071 -2.2713 -0.2052
v  -9.4029 -0.3156 -0.2052
v  -8.0268 -2.2713 -0.2052
v  -8.0268 -2.2713 0.1569
v  -7.2662 -2.2713 -0.2052
v  -7.2662 -2.2713 0.1569
v  -9.0205 0.1856 -0.2052
v  -9.0205 0.1856 0.1569
v  -7.3978 2.4171 -0.2052
v  -7.3978 2.4171 0.1569
v  -8.0796 2.4171 -0.2052
v  -8.0796 2.4171 0.1569
v  -9.3804 0.6487 -0.2052
v  -9.3804 0.6487 0.1569
v  -10.6138 2.4171 -0.2052
v  -10.6138 2.4171 0.1569
v  -11.3475 2.4171 -0.2052
v  -11.3475 2.4171 0.1569
# 60 vertices

vn 0.0000 -0.7071 0.7071
vn 0.5774 -0.5774 0.5774
vn 0.5774 0.5774 0.5774
vn 0.2101 0.0944 0.9731
vn -0.5009 0.0054 0.8655
vn -0.7453 -0.3754 0.5510
vn 0.3591 -0.6999 0.6174
vn -0.0017 -0.3392 0.9407
vn -0.5774 -0.5774 -0.5774
vn 0.5774 -0.5774 -0.5774
vn -0.5774 -0.5774 0.5774
vn 0.5502 -0.2267 -0.8037
vn 0.5502 -0.2267 0.8037
vn 0.2283 -0.5481 -0.8047
vn 0.2283 -0.5481 0.8047
vn -0.2512 -0.5134 -0.8206
vn -0.2512 -0.5134 0.8206
vn -0.5829 -0.2026 -0.7868
vn -0.5829 -0.2026 0.7868
vn -0.5550 0.2198 -0.8023
vn -0.5550 0.2198 0.8023
vn -0.7192 0.2882 -0.6322
vn -0.7192 0.2883 0.6322
vn 0.0000 -0.7071 -0.7071
vn 0.5774 0.5774 -0.5773
vn 0.2101 0.0944 -0.9731
vn 0.7250 -0.2693 -0.6339
vn 0.7250 -0.2693 0.6339
vn 0.7210 0.2682 -0.6390
vn 0.7210 0.2682 0.6390
vn 0.3308 0.7087 -0.6231
vn 0.3308 0.7087 0.6231
vn -0.2890 0.7191 -0.6320
vn -0.2890 0.7191 0.6320
vn -0.7154 0.3052 -0.6285
vn -0.7154 0.3052 0.6285
vn -0.5009 0.0054 -0.8655
vn -0.7453 -0.3754 -0.5510
vn 0.3591 -0.6999 -0.6174
vn -0.0017 -0.3392 -0.9407
vn -0.3627 -0.6987 -0.6166
vn -0.3627 -0.6987 0.6166
vn 0.7416 -0.3817 -0.5516
vn 0.7416 -0.3817 0.5516
vn 0.5021 -0.0022 -0.8648
vn 0.5021 -0.0022 0.8648
vn 0.7434 0.3786 -0.5513
vn 0.7434 0.3786 0.5513
vn -0.3548 0.7014 -0.6182
vn -0.3548 0.7014 0.6182
vn 0.0043 0.3412 -0.9400
vn 0.0043 0.3412 0.9400
vn 0.3643 0.6982 -0.6163
vn 0.3643 0.6982 0.6163
vn -0.7408 0.3833 -0.5517
vn -0.7408 0.3833 0.5517
# 56 vertex normals

vt 0.2474 0.2182 0.0000
vt 0.3396 0.2223 0.0000
vt 0.3386 0.2446 0.0000
vt 0.2460 0.2405 0.0000
vt 0.0805 0.1243 0.0000
vt 0.0101 0.0250 0.0000
vt 0.0401 0.0256 0.0000
vt 0.0948 0.1054 0.0000
vt 0.3927 0.8856 0.0000
vt 0.3926 0.9094 0.0000
vt 0.3781 0.9094 0.0000
vt 0.3781 0.8856 0.0000
vt 0.3947 0.0250 0.0000
vt 0.3947 0.0440 0.0000
vt 0.3802 0.0440 0.0000
vt 0.3802 0.0250 0.0000
vt 0.3947 0.0644 0.0000
vt 0.3801 0.0644 0.0000
vt 0.3946 0.1022 0.0000
vt 0.3800 0.1021 0.0000
vt 0.3945 0.1194 0.0000
vt 0.3800 0.1194 0.0000
vt 0.3944 0.1562 0.0000
vt 0.3799 0.1562 0.0000
vt 0.3941 0.2884 0.0000
vt 0.3796 0.2883 0.0000
vt 0.3941 0.3107 0.0000
vt 0.3795 0.3107 0.0000
vt 0.3940 0.3420 0.0000
vt 0.3938 0.4356 0.0000
vt 0.3792 0.4356 0.0000
vt 0.3794 0.3433 0.0000
vt 0.3937 0.4579 0.0000
vt 0.3792 0.4579 0.0000
vt 0.3935 0.5506 0.0000
vt 0.3789 0.5505 0.0000
vt 0.3932 0.6784 0.0000
vt 0.3786 0.6783 0.0000
vt 0.3931 0.7212 0.0000
vt 0.3785 0.7212 0.0000
vt 0.3930 0.7596 0.0000
vt 0.3784 0.7596 0.0000
vt 0.3928 0.8180 0.0000
vt 0.3783 0.8180 0.0000
vt 0.3928 0.8583 0.0000
vt 0.3782 0.8582 0.0000
vt 0.3705 0.2522 0.0000
vt 0.3710 0.3738 0.0000
vt 0.3564 0.3739 0.0000
vt 0.3559 0.2522 0.0000
vt 0.3711 0.4038 0.0000
vt 0.3565 0.4038 0.0000
vt 0.3715 0.5005 0.0000
vt 0.3569 0.5006 0.0000
vt 0.3718 0.5966 0.0000
vt 0.3573 0.5967 0.0000
vt 0.3720 0.6272 0.0000
vt 0.3574 0.6272 0.0000
vt 0.3724 0.7485 0.0000
vt 0.3579 0.7485 0.0000
vt 0.3729 0.8593 0.0000
vt 0.3583 0.8594 0.0000
vt 0.3730 0.8867 0.0000
vt 0.3584 0.8868 0.0000
vt 0.3733 0.9749 0.0000
vt 0.3588 0.9750 0.0000
vt 0.3696 0.0250 0.0000
vt 0.3699 0.1116 0.0000
vt 0.3554 0.1117 0.0000
vt 0.3551 0.0251 0.0000
vt 0.3701 0.1411 0.0000
vt 0.3555 0.1412 0.0000
vt 0.2678 0.0977 0.0000
vt 0.3215 0.0277 0.0000
vt 0.3489 0.0283 0.0000
vt 0.2818 0.1166 0.0000
vt 0.2197 0.0256 0.0000
vt 0.2525 0.1169 0.0000
vt 0.1902 0.0250 0.0000
vt 0.2661 0.1364 0.0000
vt 0.2080 0.2138 0.0000
vt 0.1781 0.2132 0.0000
vt 0.3197 0.2161 0.0000
vt 0.3503 0.2167 0.0000
vt 0.0949 0.1442 0.0000
vt 0.0438 0.2141 0.0000
vt 0.0144 0.2135 0.0000
vt 0.1097 0.1259 0.0000
vt 0.1730 0.2169 0.0000
vt 0.1456 0.2163 0.0000
vt 0.1518 0.0280 0.0000
vt 0.1823 0.0286 0.0000
vt 0.2119 0.3791 0.0000
vt 0.2132 0.3517 0.0000
vt 0.2369 0.3528 0.0000
vt 0.2361 0.3717 0.0000
vt 0.1312 0.3369 0.0000
vt 0.0461 0.2416 0.0000
vt 0.0138 0.2416 0.0000
vt 0.1053 0.3370 0.0000
vt 0.1307 0.3797 0.0000
vt 0.1051 0.3738 0.0000
vt 0.0185 0.3542 0.0000
vt 0.0186 0.3816 0.0000
vt 0.0423 0.3731 0.0000
vt 0.0423 0.3541 0.0000
vt 0.1061 0.4092 0.0000
vt 0.0945 0.3874 0.0000
vt 0.0477 0.4094 0.0000
vt 0.0567 0.3875 0.0000
vt 0.0450 0.2192 0.0000
vt 0.0137 0.2193 0.0000
vt 0.1386 0.2190 0.0000
vt 0.1387 0.2413 0.0000
vt 0.2498 0.3868 0.0000
vt 0.2397 0.4082 0.0000
vt 0.2875 0.3885 0.0000
vt 0.2981 0.4108 0.0000
vt 0.2987 0.3753 0.0000
vt 0.3240 0.3825 0.0000
vt 0.3007 0.3386 0.0000
vt 0.3266 0.3397 0.0000
vt 0.2138 0.2390 0.0000
vt 0.2148 0.2167 0.0000
# 124 texture coords

o 2X_Text
g 2X_Text
usemtl 01___Default
s 1
f 1/1/1 2/2/2 3/3/3 4/4/4 
f 5/5/5 6/6/6 7/7/7 8/8/8 
s off
f 9/9/9 10/10/10 11/11/2 12/12/11 
f 10/13/10 13/14/12 14/15/13 11/16/2 
f 13/14/12 15/17/14 16/18/15 14/15/13 
f 15/17/14 17/19/16 18/20/17 16/18/15 
f 17/19/16 19/21/18 20/22/19 18/20/17 
f 19/21/18 21/23/20 22/24/21 20/22/19 
f 21/23/20 23/25/22 24/26/23 22/24/21 
f 23/25/22 25/27/9 26/28/11 24/26/23 
f 27/29/24 28/30/10 2/31/2 1/32/1 
f 28/30/10 29/33/25 3/34/3 2/31/2 
f 29/33/25 30/35/26 4/36/4 3/34/3 
f 30/35/26 31/37/27 32/38/28 4/36/4 
f 31/37/27 33/39/29 34/40/30 32/38/28 
f 33/39/29 35/41/31 36/42/32 34/40/30 
f 35/41/31 37/43/33 38/44/34 36/42/32 
f 37/43/33 39/45/35 40/46/36 38/44/34 
f 39/45/35 9/9/9 12/12/11 40/46/36 
f 41/47/37 42/48/38 6/49/6 5/50/5 
f 42/48/38 43/51/39 7/52/7 6/49/6 
f 43/51/39 44/53/40 8/54/8 7/52/7 
f 44/53/40 45/55/41 46/56/42 8/54/8 
f 45/55/41 47/57/43 48/58/44 46/56/42 
f 47/57/43 49/59/45 50/60/46 48/58/44 
f 49/59/45 51/61/47 52/62/48 50/60/46 
f 51/61/47 53/63/49 54/64/50 52/62/48 
f 53/63/49 55/65/51 56/66/52 54/64/50 
f 55/67/51 57/68/53 58/69/54 56/70/52 
f 57/68/53 59/71/55 60/72/56 58/69/54 
f 59/71/55 41/47/37 5/50/5 60/72/56 
s 1
f 55/73/51 53/74/49 51/75/47 49/76/45 
s 2
f 57/77/53 55/73/51 41/78/37 59/79/55 
s 1
f 44/80/40 43/81/39 42/82/38 41/78/37 
s 2
f 45/83/41 44/80/40 49/76/45 47/84/43 
s 4
f 49/76/45 44/80/40 41/78/37 55/73/51 
s 1
f 56/85/52 58/86/54 60/87/56 5/5/5 
f 50/88/46 52/89/48 54/90/50 56/85/52 
f 8/8/8 46/91/42 48/92/44 50/88/46 
f 50/88/46 56/85/52 5/5/5 8/8/8 
f 40/93/36 12/94/11 11/95/2 14/96/13 
s off
f 1/32/1 26/28/11 25/27/9 27/29/24 
s 1
f 31/97/27 30/98/26 23/99/22 21/100/20 
s 2
f 33/101/29 31/97/27 21/100/20 19/102/18 
s 1
f 9/103/9 39/104/35 13/105/12 10/106/10 
f 35/107/31 33/101/29 19/102/18 17/108/16 
s 2
f 37/109/33 35/107/31 17/108/16 15/110/14 
s 4
f 39/104/35 37/109/33 15/110/14 13/105/12 
s 2
f 23/99/22 30/98/26 27/111/24 25/112/9 
s 4
f 28/113/10 27/111/24 30/98/26 29/114/25 
s 1
f 14/96/13 16/115/15 38/116/34 40/93/36 
f 16/115/15 18/117/17 36/118/32 38/116/34 
f 18/117/17 20/119/19 34/120/30 36/118/32 
f 20/119/19 22/121/21 32/122/28 34/120/30 
f 22/121/21 24/123/23 4/4/4 32/122/28 
f 24/123/23 26/124/11 1/1/1 4/4/4 
# 56 polygons

