# 3ds Max Wavefront OBJ Exporter v0.99 - (c)2007 guruware
# File Created: 23.07.2026 21:30:17

mtllib Inside_Crystal.mtl

#
# object Crystal_inside
#

v  0.1674 -8.2337 -1.7518
v  1.9358 -8.2337 0.0165
v  0.1674 -9.9975 0.0165
v  0.1674 10.8617 0.0165
v  0.1674 9.0979 -1.7594
v  -1.6085 9.0979 0.0165
v  -2.3384 -1.9781 5.2373
v  2.6732 -1.9781 5.2373
v  2.6732 2.1876 5.2373
v  -2.3384 2.1876 5.2373
v  4.9257 -1.9781 2.9848
v  4.9257 -1.9781 -2.9517
v  4.9257 2.1876 -2.9517
v  4.9257 2.1876 2.9848
v  2.6732 -1.9781 -5.2042
v  -2.3384 -1.9781 -5.2042
v  -2.3384 2.1876 -5.2042
v  2.6732 2.1876 -5.2042
v  -4.5909 -1.9781 -2.9517
v  -4.5909 -1.9781 2.9848
v  -4.5909 2.1876 2.9848
v  -4.5909 2.1876 -2.9517
v  1.4776 5.7379 3.9907
v  -1.1428 5.7379 3.9907
v  3.8998 5.7379 -1.5354
v  3.8998 5.7379 1.5685
v  -1.1428 5.7379 -3.9576
v  1.4776 5.7379 -3.9576
v  -3.5650 5.7379 1.5685
v  -3.5650 5.7379 -1.5354
v  -3.7760 -5.2665 -1.6255
v  -3.7760 -5.2665 1.6586
v  1.5537 -5.2665 -4.1827
v  -1.2188 -5.2665 -4.1827
v  4.1109 -5.2665 1.6586
v  4.1109 -5.2665 -1.6255
v  -1.2188 -5.2665 4.2158
v  1.5537 -5.2665 4.2158
v  0.1674 9.0979 1.7925
v  1.9433 9.0979 0.0165
v  -1.6010 -8.2337 0.0165
v  0.1674 -8.2337 1.7849
# 42 vertices

vn 0.0000 -0.7461 -0.6658
vn 0.6765 -0.7364 -0.0000
vn 0.0000 -1.0000 -0.0000
vn 0.0000 1.0000 -0.0000
vn 0.0000 0.6985 -0.7156
vn -0.7247 0.6890 -0.0000
vn -0.3915 -0.1905 0.9002
vn 0.3915 -0.1905 0.9002
vn 0.3885 0.2034 0.8987
vn -0.3885 0.2034 0.8987
vn 0.8989 -0.1804 0.3992
vn 0.8989 -0.1804 -0.3992
vn 0.8976 0.1934 -0.3960
vn 0.8976 0.1934 0.3960
vn 0.3915 -0.1905 -0.9002
vn -0.3915 -0.1905 -0.9002
vn -0.3885 0.2034 -0.8987
vn 0.3885 0.2034 -0.8987
vn -0.8989 -0.1804 -0.3992
vn -0.8989 -0.1804 0.3992
vn -0.8976 0.1934 0.3960
vn -0.8976 0.1934 -0.3960
vn 0.3162 0.4962 0.8086
vn -0.3162 0.4962 0.8086
vn 0.8234 0.4707 -0.3170
vn 0.8234 0.4707 0.3170
vn -0.3162 0.4962 -0.8086
vn 0.3162 0.4962 -0.8086
vn -0.8234 0.4707 0.3170
vn -0.8234 0.4707 -0.3170
vn -0.8128 -0.4944 -0.3080
vn -0.8128 -0.4944 0.3080
vn 0.3072 -0.5202 -0.7969
vn -0.3072 -0.5202 -0.7969
vn 0.8128 -0.4944 0.3080
vn 0.8128 -0.4944 -0.3080
vn -0.3072 -0.5202 0.7969
vn 0.3072 -0.5202 0.7969
vn 0.0000 0.6985 0.7156
vn 0.7247 0.6890 0.0000
vn -0.6765 -0.7364 -0.0000
vn 0.0000 -0.7461 0.6658
# 42 vertex normals

vt 0.9168 0.1981 0.0000
vt 0.8542 0.1353 0.0000
vt 0.9169 0.1354 0.0000
vt 0.8217 0.0829 0.0000
vt 0.8219 0.1458 0.0000
vt 0.7588 0.0832 0.0000
vt 0.5094 0.2165 0.0000
vt 0.6445 0.2161 0.0000
vt 0.6448 0.3284 0.0000
vt 0.5097 0.3288 0.0000
vt 0.0200 0.2108 0.0000
vt 0.1801 0.2104 0.0000
vt 0.1803 0.3227 0.0000
vt 0.0202 0.3231 0.0000
vt 0.3620 0.2170 0.0000
vt 0.4971 0.2156 0.0000
vt 0.4982 0.3280 0.0000
vt 0.3631 0.3293 0.0000
vt 0.3511 0.3369 0.0000
vt 0.1910 0.3368 0.0000
vt 0.1910 0.2245 0.0000
vt 0.3511 0.2245 0.0000
vt 0.6129 0.4300 0.0000
vt 0.5422 0.4302 0.0000
vt 0.1423 0.4225 0.0000
vt 0.0586 0.4227 0.0000
vt 0.4670 0.4297 0.0000
vt 0.3963 0.4304 0.0000
vt 0.2293 0.1248 0.0000
vt 0.3130 0.1249 0.0000
vt 0.3153 0.4282 0.0000
vt 0.2267 0.4282 0.0000
vt 0.3913 0.1238 0.0000
vt 0.4660 0.1231 0.0000
vt 0.0556 0.1193 0.0000
vt 0.1441 0.1191 0.0000
vt 0.5393 0.1235 0.0000
vt 0.6141 0.1233 0.0000
vt 0.8625 0.5984 0.0000
vt 0.8621 0.4860 0.0000
vt 0.9480 0.4857 0.0000
vt 0.9484 0.5981 0.0000
vt 0.2359 0.6483 0.0000
vt 0.2362 0.7607 0.0000
vt 0.1503 0.7609 0.0000
vt 0.1500 0.6486 0.0000
vt 0.6605 0.3380 0.0000
vt 0.6636 0.2257 0.0000
vt 0.7494 0.2281 0.0000
vt 0.7464 0.3404 0.0000
vt 0.7585 0.5262 0.0000
vt 0.7592 0.4139 0.0000
vt 0.8451 0.4143 0.0000
vt 0.8444 0.5267 0.0000
vt 0.8811 0.8174 0.0000
vt 0.8638 0.7048 0.0000
vt 0.9562 0.7045 0.0000
vt 0.9489 0.8172 0.0000
vt 0.6548 0.5570 0.0000
vt 0.6501 0.4442 0.0000
vt 0.7425 0.4468 0.0000
vt 0.7225 0.5589 0.0000
vt 0.7752 0.7454 0.0000
vt 0.7589 0.6327 0.0000
vt 0.8513 0.6332 0.0000
vt 0.8430 0.7458 0.0000
vt 0.1512 0.9800 0.0000
vt 0.1431 0.8674 0.0000
vt 0.2355 0.8671 0.0000
vt 0.2189 0.9798 0.0000
vt 0.8458 0.2085 0.0000
vt 0.8554 0.3168 0.0000
vt 0.7578 0.3162 0.0000
vt 0.7783 0.2082 0.0000
vt 0.7370 0.0219 0.0000
vt 0.7540 0.1305 0.0000
vt 0.6565 0.1279 0.0000
vt 0.6696 0.0200 0.0000
vt 0.9468 0.2799 0.0000
vt 0.9574 0.3881 0.0000
vt 0.8599 0.3884 0.0000
vt 0.8794 0.2802 0.0000
vt 0.2173 0.4426 0.0000
vt 0.2375 0.5507 0.0000
vt 0.1400 0.5510 0.0000
vt 0.1498 0.4428 0.0000
vt 0.8845 0.0826 0.0000
vt 0.8214 0.0200 0.0000
vt 0.9170 0.0727 0.0000
vt 0.9796 0.1355 0.0000
vt 0.5779 0.5384 0.0000
vt 0.1007 0.5274 0.0000
vt 0.4327 0.5384 0.0000
vt 0.2711 0.0200 0.0000
vt 0.2710 0.5274 0.0000
vt 0.4276 0.0200 0.0000
vt 0.0996 0.0200 0.0000
vt 0.5764 0.0200 0.0000
# 98 texture coords

o Crystal_inside
g Crystal_inside
usemtl 01___Default
s 1
f 1/1/1 2/2/2 3/3/3 
f 4/4/4 5/5/5 6/6/6 
f 7/7/7 8/8/8 9/9/9 10/10/10 
f 11/11/11 12/12/12 13/13/13 14/14/14 
f 15/15/15 16/16/16 17/17/17 18/18/18 
f 19/19/19 20/20/20 21/21/21 22/22/22 
f 10/10/10 9/9/9 23/23/23 24/24/24 
f 14/14/14 13/13/13 25/25/25 26/26/26 
f 18/18/18 17/17/17 27/27/27 28/28/28 
f 22/22/22 21/21/21 29/29/29 30/30/30 
f 20/20/20 19/19/19 31/31/31 32/32/32 
f 16/16/16 15/15/15 33/33/33 34/34/34 
f 12/12/12 11/11/11 35/35/35 36/36/36 
f 8/8/8 7/7/7 37/37/37 38/38/38 
f 9/39/9 8/40/8 11/41/11 14/42/14 
f 7/43/7 10/44/10 21/45/21 20/46/20 
f 13/47/13 12/48/12 15/49/15 18/50/18 
f 17/51/17 16/52/16 19/53/19 22/54/22 
f 39/55/39 23/56/23 26/57/26 40/58/40 
f 40/59/40 25/60/25 28/61/28 5/62/5 
f 5/63/5 27/64/27 30/65/30 6/66/6 
f 6/67/6 29/68/29 24/69/24 39/70/39 
f 41/71/41 31/72/31 34/73/34 1/74/1 
f 1/75/1 33/76/33 36/77/36 2/78/2 
f 2/79/2 35/80/35 38/81/38 42/82/42 
f 42/83/42 37/84/37 32/85/32 41/86/41 
f 40/87/40 5/5/5 4/4/4 
f 6/6/6 39/88/39 4/4/4 
f 4/4/4 39/88/39 40/87/40 
f 2/2/2 42/89/42 3/3/3 
f 42/89/42 41/90/41 3/3/3 
f 3/3/3 41/90/41 1/1/1 
f 23/23/23 39/91/39 24/24/24 
f 25/25/25 40/92/40 26/26/26 
f 27/27/27 5/93/5 28/28/28 
f 29/29/29 6/94/6 30/30/30 
f 23/56/23 9/39/9 14/42/14 26/57/26 
f 25/60/25 13/47/13 18/50/18 28/61/28 
f 27/64/27 17/51/17 22/54/22 30/65/30 
f 29/68/29 21/45/21 10/44/10 24/69/24 
f 31/31/31 41/95/41 32/32/32 
f 33/33/33 1/96/1 34/34/34 
f 35/35/35 2/97/2 36/36/36 
f 37/37/37 42/98/42 38/38/38 
f 31/72/31 19/53/19 16/52/16 34/73/34 
f 33/76/33 15/49/15 12/48/12 36/77/36 
f 35/80/35 11/41/11 8/40/8 38/81/38 
f 37/84/37 7/43/7 20/46/20 32/85/32 
# 32 polygons - 16 triangles

