# 3ds Max Wavefront OBJ Exporter v0.99 - (c)2007 guruware
# File Created: 23.07.2026 21:30:28

mtllib Outside_Crystal.mtl

#
# object Crystal_inside001
#

v  12.1061 -9.9944 -2.1111
v  14.2338 -9.9944 0.0165
v  12.1061 -12.1166 0.0165
v  12.1061 12.9807 0.0165
v  12.1061 10.8585 -2.1202
v  9.9693 10.8585 0.0165
v  9.0912 -2.4678 6.2980
v  15.1210 -2.4678 6.2980
v  15.1210 2.5443 6.2980
v  9.0912 2.5443 6.2980
v  17.8312 -2.4678 3.5879
v  17.8312 -2.4678 -3.5548
v  17.8312 2.5443 -3.5548
v  17.8312 2.5443 3.5879
v  15.1210 -2.4678 -6.2650
v  9.0912 -2.4678 -6.2650
v  9.0912 2.5443 -6.2650
v  15.1210 2.5443 -6.2650
v  6.3810 -2.4678 -3.5548
v  6.3810 -2.4678 3.5879
v  6.3810 2.5443 3.5879
v  6.3810 2.5443 -3.5548
v  13.6825 6.8159 4.7982
v  10.5297 6.8159 4.7982
v  16.5968 6.8159 -1.8508
v  16.5968 6.8159 1.8839
v  10.5297 6.8159 -4.7651
v  13.6825 6.8159 -4.7651
v  7.6154 6.8159 1.8839
v  7.6154 6.8159 -1.8508
v  7.3614 -6.4243 -1.9592
v  7.3614 -6.4243 1.9922
v  13.7740 -6.4243 -5.0359
v  10.4382 -6.4243 -5.0359
v  16.8507 -6.4243 1.9922
v  16.8507 -6.4243 -1.9592
v  10.4382 -6.4243 5.0690
v  13.7740 -6.4243 5.0690
v  12.1061 10.8585 2.1533
v  14.2428 10.8585 0.0165
v  9.9784 -9.9944 0.0165
v  12.1061 -9.9944 2.1442
# 42 vertices

vn 0.0000 -0.7461 -0.6658
vn 0.6765 -0.7364 -0.0000
vn 0.0000 -1.0000 -0.0000
vn 0.0000 1.0000 -0.0000
vn 0.0000 0.6985 -0.7156
vn -0.7247 0.6890 -0.0000
vn -0.3915 -0.1905 0.9002
vn 0.3915 -0.1905 0.9002
vn 0.3885 0.2034 0.8987
vn -0.3885 0.2034 0.8987
vn 0.8989 -0.1804 0.3992
vn 0.8989 -0.1804 -0.3992
vn 0.8976 0.1934 -0.3960
vn 0.8976 0.1934 0.3960
vn 0.3915 -0.1905 -0.9002
vn -0.3915 -0.1905 -0.9002
vn -0.3885 0.2034 -0.8987
vn 0.3885 0.2034 -0.8987
vn -0.8989 -0.1804 -0.3992
vn -0.8989 -0.1804 0.3992
vn -0.8976 0.1934 0.3960
vn -0.8976 0.1934 -0.3960
vn 0.3162 0.4962 0.8086
vn -0.3162 0.4962 0.8086
vn 0.8234 0.4707 -0.3170
vn 0.8234 0.4707 0.3170
vn -0.3162 0.4962 -0.8086
vn 0.3162 0.4962 -0.8086
vn -0.8234 0.4707 0.3170
vn -0.8234 0.4707 -0.3170
vn -0.8128 -0.4944 -0.3080
vn -0.8128 -0.4944 0.3080
vn 0.3072 -0.5202 -0.7969
vn -0.3072 -0.5202 -0.7969
vn 0.8128 -0.4944 0.3080
vn 0.8128 -0.4944 -0.3080
vn -0.3072 -0.5202 0.7969
vn 0.3072 -0.5202 0.7969
vn 0.0000 0.6985 0.7156
vn 0.7247 0.6890 0.0000
vn -0.6765 -0.7364 -0.0000
vn 0.0000 -0.7461 0.6658
# 42 vertex normals

vt 0.5072 0.6168 0.0000
vt 0.4438 0.5533 0.0000
vt 0.5072 0.5534 0.0000
vt 0.3507 0.5287 0.0000
vt 0.3511 0.5924 0.0000
vt 0.2871 0.5291 0.0000
vt 0.5116 0.2160 0.0000
vt 0.6483 0.2153 0.0000
vt 0.6489 0.3290 0.0000
vt 0.5121 0.3297 0.0000
vt 0.1908 0.2097 0.0000
vt 0.3528 0.2100 0.0000
vt 0.3526 0.3237 0.0000
vt 0.1906 0.3234 0.0000
vt 0.3635 0.2161 0.0000
vt 0.5003 0.2152 0.0000
vt 0.5010 0.3289 0.0000
vt 0.3642 0.3297 0.0000
vt 0.0168 0.2102 0.0000
vt 0.1788 0.2095 0.0000
vt 0.1793 0.3232 0.0000
vt 0.0173 0.3239 0.0000
vt 0.6167 0.4319 0.0000
vt 0.5452 0.4322 0.0000
vt 0.3138 0.4245 0.0000
vt 0.2291 0.4243 0.0000
vt 0.4690 0.4318 0.0000
vt 0.3974 0.4322 0.0000
vt 0.1412 0.4242 0.0000
vt 0.0564 0.4246 0.0000
vt 0.0525 0.1176 0.0000
vt 0.1422 0.1172 0.0000
vt 0.3935 0.1219 0.0000
vt 0.4692 0.1214 0.0000
vt 0.2271 0.1173 0.0000
vt 0.3168 0.1175 0.0000
vt 0.5417 0.1219 0.0000
vt 0.6173 0.1215 0.0000
vt 0.6632 0.3404 0.0000
vt 0.6613 0.2267 0.0000
vt 0.7482 0.2252 0.0000
vt 0.7501 0.3389 0.0000
vt 0.2375 0.6476 0.0000
vt 0.2371 0.7613 0.0000
vt 0.1502 0.7611 0.0000
vt 0.1505 0.6474 0.0000
vt 0.8841 0.4035 0.0000
vt 0.8838 0.2898 0.0000
vt 0.9707 0.2895 0.0000
vt 0.9710 0.4032 0.0000
vt 0.7699 0.3585 0.0000
vt 0.7692 0.2448 0.0000
vt 0.8561 0.2442 0.0000
vt 0.8568 0.3579 0.0000
vt 0.6850 0.5618 0.0000
vt 0.6659 0.4481 0.0000
vt 0.7594 0.4465 0.0000
vt 0.7535 0.5606 0.0000
vt 0.8851 0.6252 0.0000
vt 0.8769 0.5112 0.0000
vt 0.9704 0.5110 0.0000
vt 0.9536 0.6250 0.0000
vt 0.7895 0.5801 0.0000
vt 0.7716 0.4662 0.0000
vt 0.8651 0.4656 0.0000
vt 0.8580 0.5796 0.0000
vt 0.1498 0.9828 0.0000
vt 0.1423 0.8688 0.0000
vt 0.2358 0.8691 0.0000
vt 0.2183 0.9830 0.0000
vt 0.8543 0.0360 0.0000
vt 0.8653 0.1454 0.0000
vt 0.7666 0.1460 0.0000
vt 0.7860 0.0364 0.0000
vt 0.9518 0.0813 0.0000
vt 0.9723 0.1907 0.0000
vt 0.8736 0.1910 0.0000
vt 0.8835 0.0815 0.0000
vt 0.7443 0.0170 0.0000
vt 0.7564 0.1263 0.0000
vt 0.6577 0.1279 0.0000
vt 0.6760 0.0181 0.0000
vt 0.2198 0.4393 0.0000
vt 0.2397 0.5488 0.0000
vt 0.1410 0.5485 0.0000
vt 0.1516 0.4391 0.0000
vt 0.4144 0.5284 0.0000
vt 0.3504 0.4651 0.0000
vt 0.5073 0.4899 0.0000
vt 0.5707 0.5534 0.0000
vt 0.5815 0.5416 0.0000
vt 0.2713 0.5305 0.0000
vt 0.4338 0.5416 0.0000
vt 0.0993 0.5305 0.0000
vt 0.0969 0.0170 0.0000
vt 0.4307 0.0170 0.0000
vt 0.2721 0.0170 0.0000
vt 0.5790 0.0170 0.0000
# 98 texture coords

o Crystal_inside001
g Crystal_inside001
usemtl 01___Default
s 1
f 1/1/1 2/2/2 3/3/3 
f 4/4/4 5/5/5 6/6/6 
f 7/7/7 8/8/8 9/9/9 10/10/10 
f 11/11/11 12/12/12 13/13/13 14/14/14 
f 15/15/15 16/16/16 17/17/17 18/18/18 
f 19/19/19 20/20/20 21/21/21 22/22/22 
f 10/10/10 9/9/9 23/23/23 24/24/24 
f 14/14/14 13/13/13 25/25/25 26/26/26 
f 18/18/18 17/17/17 27/27/27 28/28/28 
f 22/22/22 21/21/21 29/29/29 30/30/30 
f 20/20/20 19/19/19 31/31/31 32/32/32 
f 16/16/16 15/15/15 33/33/33 34/34/34 
f 12/12/12 11/11/11 35/35/35 36/36/36 
f 8/8/8 7/7/7 37/37/37 38/38/38 
f 9/39/9 8/40/8 11/41/11 14/42/14 
f 7/43/7 10/44/10 21/45/21 20/46/20 
f 13/47/13 12/48/12 15/49/15 18/50/18 
f 17/51/17 16/52/16 19/53/19 22/54/22 
f 39/55/39 23/56/23 26/57/26 40/58/40 
f 40/59/40 25/60/25 28/61/28 5/62/5 
f 5/63/5 27/64/27 30/65/30 6/66/6 
f 6/67/6 29/68/29 24/69/24 39/70/39 
f 41/71/41 31/72/31 34/73/34 1/74/1 
f 1/75/1 33/76/33 36/77/36 2/78/2 
f 2/79/2 35/80/35 38/81/38 42/82/42 
f 42/83/42 37/84/37 32/85/32 41/86/41 
f 40/87/40 5/5/5 4/4/4 
f 6/6/6 39/88/39 4/4/4 
f 4/4/4 39/88/39 40/87/40 
f 2/2/2 42/89/42 3/3/3 
f 42/89/42 41/90/41 3/3/3 
f 3/3/3 41/90/41 1/1/1 
f 23/23/23 39/91/39 24/24/24 
f 25/25/25 40/92/40 26/26/26 
f 27/27/27 5/93/5 28/28/28 
f 29/29/29 6/94/6 30/30/30 
f 23/56/23 9/39/9 14/42/14 26/57/26 
f 25/60/25 13/47/13 18/50/18 28/61/28 
f 27/64/27 17/51/17 22/54/22 30/65/30 
f 29/68/29 21/45/21 10/44/10 24/69/24 
f 31/31/31 41/95/41 32/32/32 
f 33/33/33 1/96/1 34/34/34 
f 35/35/35 2/97/2 36/36/36 
f 37/37/37 42/98/42 38/38/38 
f 31/72/31 19/53/19 16/52/16 34/73/34 
f 33/76/33 15/49/15 12/48/12 36/77/36 
f 35/80/35 11/41/11 8/40/8 38/81/38 
f 37/84/37 7/43/7 20/46/20 32/85/32 
# 32 polygons - 16 triangles

