# 3ds Max Wavefront OBJ Exporter v0.99 - (c)2007 guruware
# File Created: 23.07.2026 21:28:35

mtllib Inside_RainbowRock.mtl

#
# object RainbowRock_Inside
#

v  -5.7399 9.7905 -0.1869
v  -5.7399 7.1482 -3.0076
v  -7.3684 7.1482 -3.0076
v  -8.5606 7.1482 -1.8155
v  -8.5606 7.1482 -0.1869
v  -8.5606 7.1482 1.4416
v  -7.3684 7.1482 2.6338
v  -5.7399 7.1482 2.6338
v  -4.1113 7.1482 2.6338
v  -2.9192 7.1482 1.4416
v  -2.9192 7.1482 -0.1869
v  -2.9192 7.1482 -1.8155
v  -4.1113 7.1482 -3.0076
v  -5.7399 4.1270 -5.0726
v  -8.5606 4.1270 -5.0726
v  -10.6255 4.1270 -3.0076
v  -10.6255 4.1270 -0.1869
v  -10.6255 4.1270 2.6338
v  -8.5606 4.1270 4.6987
v  -5.7399 4.1270 4.6987
v  -2.9192 4.1270 4.6987
v  -0.8542 4.1270 2.6338
v  -0.8542 4.1270 -0.1869
v  -0.8542 4.1270 -3.0076
v  -2.9192 4.1270 -5.0726
v  -5.7399 -0.0000 -5.8284
v  -8.9970 -0.0000 -5.8284
v  -11.3813 -0.0000 -3.4440
v  -11.3813 -0.0000 -0.1869
v  -11.3813 -0.0000 3.0702
v  -8.9970 -0.0000 5.1636
v  -5.7399 -0.0000 5.1636
v  -2.4828 -0.0000 5.1636
v  -0.0984 -0.0000 3.0702
v  -0.0984 -0.0000 -0.1869
v  -0.0984 -0.0000 -3.4440
v  -2.4828 -0.0000 -5.8284
v  -5.7399 -4.1270 -5.0726
v  -8.5606 -4.1270 -5.0726
v  -10.6255 -4.1270 -3.0076
v  -10.6255 -4.1270 -0.1869
v  -10.6255 -4.1270 2.6338
v  -8.5606 -4.1270 4.6987
v  -5.7399 -4.1270 4.6987
v  -2.9192 -4.1270 4.6987
v  -0.8542 -4.1270 2.6338
v  -0.8542 -4.1270 -0.1869
v  -0.8542 -4.1270 -3.0076
v  -2.9192 -4.1270 -5.0726
v  -5.7399 -7.1482 -3.0076
v  -7.3684 -7.1482 -3.0076
v  -8.5606 -7.1482 -1.8155
v  -8.5606 -7.1482 -0.1869
v  -8.5606 -7.1482 1.4416
v  -7.3684 -7.1482 2.6338
v  -5.7399 -7.1482 2.6338
v  -4.1113 -7.1482 2.6338
v  -2.9192 -7.1482 1.4416
v  -2.9192 -7.1482 -0.1869
v  -2.9192 -7.1482 -1.8155
v  -4.1113 -7.1482 -3.0076
v  -5.7399 -9.7905 -0.1869
# 62 vertices

vn -0.0000 1.0000 -0.0000
vn 0.0000 0.7338 -0.6793
vn -0.2396 0.7633 -0.6000
vn -0.6000 0.7633 -0.2396
vn -0.6793 0.7338 -0.0000
vn -0.6000 0.7633 0.2396
vn -0.2396 0.7633 0.6000
vn -0.0000 0.7338 0.6793
vn 0.2396 0.7633 0.6000
vn 0.6000 0.7633 0.2396
vn 0.6793 0.7338 0.0000
vn 0.6000 0.7633 -0.2396
vn 0.2396 0.7633 -0.6000
vn 0.0000 0.4537 -0.8912
vn -0.3382 0.4721 -0.8141
vn -0.8141 0.4721 -0.3382
vn -0.8912 0.4537 -0.0000
vn -0.8141 0.4721 0.3382
vn -0.3408 0.4354 0.8332
vn -0.0000 0.4149 0.9099
vn 0.3408 0.4354 0.8332
vn 0.8141 0.4721 0.3382
vn 0.8912 0.4537 0.0000
vn 0.8141 0.4721 -0.3382
vn 0.3382 0.4721 -0.8141
vn 0.0000 -0.0000 -1.0000
vn -0.3896 -0.0000 -0.9210
vn -0.9210 0.0000 -0.3896
vn -1.0000 -0.0000 -0.0000
vn -0.9085 -0.0000 0.4180
vn -0.3671 0.0000 0.9302
vn -0.0000 0.0000 1.0000
vn 0.3671 0.0000 0.9302
vn 0.9085 -0.0000 0.4180
vn 1.0000 -0.0000 0.0000
vn 0.9210 -0.0000 -0.3896
vn 0.3896 -0.0000 -0.9210
vn 0.0000 -0.4537 -0.8912
vn -0.3382 -0.4721 -0.8141
vn -0.8141 -0.4721 -0.3382
vn -0.8912 -0.4537 -0.0000
vn -0.8141 -0.4721 0.3382
vn -0.3408 -0.4354 0.8332
vn -0.0000 -0.4149 0.9099
vn 0.3408 -0.4354 0.8332
vn 0.8141 -0.4721 0.3382
vn 0.8912 -0.4537 0.0000
vn 0.8141 -0.4721 -0.3382
vn 0.3382 -0.4721 -0.8141
vn 0.0000 -0.7338 -0.6793
vn -0.2396 -0.7633 -0.6000
vn -0.6000 -0.7633 -0.2396
vn -0.6793 -0.7338 -0.0000
vn -0.6000 -0.7633 0.2396
vn -0.2396 -0.7633 0.6000
vn -0.0000 -0.7338 0.6793
vn 0.2396 -0.7633 0.6000
vn 0.6000 -0.7633 0.2396
vn 0.6793 -0.7338 0.0000
vn 0.6000 -0.7633 -0.2396
vn 0.2396 -0.7633 -0.6000
vn -0.0000 -1.0000 -0.0000
# 62 vertex normals

vt 0.8567 0.1218 0.0000
vt 0.8565 0.0243 0.0000
vt 0.9106 0.0279 0.0000
vt 0.9503 0.0675 0.0000
vt 0.9542 0.1216 0.0000
vt 0.9506 0.1756 0.0000
vt 0.9110 0.2154 0.0000
vt 0.8570 0.2193 0.0000
vt 0.8029 0.2156 0.0000
vt 0.7631 0.1761 0.0000
vt 0.7592 0.1220 0.0000
vt 0.7629 0.0680 0.0000
vt 0.8025 0.0282 0.0000
vt 0.1255 0.4196 0.0000
vt 0.1241 0.3238 0.0000
vt 0.2097 0.3226 0.0000
vt 0.1749 0.4189 0.0000
vt 0.2025 0.7891 0.0000
vt 0.1840 0.6884 0.0000
vt 0.2726 0.6886 0.0000
vt 0.2537 0.7892 0.0000
vt 0.4937 0.4198 0.0000
vt 0.4566 0.3244 0.0000
vt 0.5422 0.3236 0.0000
vt 0.5431 0.4194 0.0000
vt 0.6279 0.3228 0.0000
vt 0.5926 0.4189 0.0000
vt 0.7529 0.8050 0.0000
vt 0.7316 0.7048 0.0000
vt 0.8203 0.7026 0.0000
vt 0.8041 0.8037 0.0000
vt 0.3845 0.8214 0.0000
vt 0.3477 0.7258 0.0000
vt 0.4333 0.7253 0.0000
vt 0.4340 0.8210 0.0000
vt 0.5190 0.7247 0.0000
vt 0.4834 0.8207 0.0000
vt 0.6101 0.8190 0.0000
vt 0.5926 0.7181 0.0000
vt 0.6812 0.7192 0.0000
vt 0.6613 0.8196 0.0000
vt 0.2846 0.4199 0.0000
vt 0.2474 0.3245 0.0000
vt 0.3330 0.3236 0.0000
vt 0.3340 0.4194 0.0000
vt 0.4186 0.3227 0.0000
vt 0.3834 0.4189 0.0000
vt 0.6777 0.4300 0.0000
vt 0.6587 0.3294 0.0000
vt 0.7474 0.3292 0.0000
vt 0.7289 0.4299 0.0000
vt 0.0760 0.4203 0.0000
vt 0.0385 0.3250 0.0000
vt 0.1226 0.2223 0.0000
vt 0.2215 0.2209 0.0000
vt 0.1773 0.5863 0.0000
vt 0.2797 0.5865 0.0000
vt 0.4423 0.2230 0.0000
vt 0.5412 0.2221 0.0000
vt 0.6401 0.2211 0.0000
vt 0.7220 0.6029 0.0000
vt 0.8184 0.6019 0.0000
vt 0.3338 0.6260 0.0000
vt 0.4327 0.6254 0.0000
vt 0.5316 0.6247 0.0000
vt 0.5930 0.6173 0.0000
vt 0.6894 0.6171 0.0000
vt 0.2330 0.2231 0.0000
vt 0.3319 0.2221 0.0000
vt 0.4308 0.2211 0.0000
vt 0.6516 0.2273 0.0000
vt 0.7540 0.2270 0.0000
vt 0.0237 0.2237 0.0000
vt 0.1212 0.1208 0.0000
vt 0.2068 0.1195 0.0000
vt 0.1843 0.4841 0.0000
vt 0.2730 0.4843 0.0000
vt 0.4546 0.1214 0.0000
vt 0.5403 0.1205 0.0000
vt 0.6259 0.1197 0.0000
vt 0.7293 0.5008 0.0000
vt 0.8180 0.5011 0.0000
vt 0.3464 0.5260 0.0000
vt 0.4320 0.5255 0.0000
vt 0.5177 0.5249 0.0000
vt 0.5920 0.5165 0.0000
vt 0.6806 0.5151 0.0000
vt 0.2452 0.1215 0.0000
vt 0.3309 0.1206 0.0000
vt 0.4165 0.1197 0.0000
vt 0.6582 0.1251 0.0000
vt 0.7469 0.1249 0.0000
vt 0.0355 0.1220 0.0000
vt 0.1198 0.0250 0.0000
vt 0.1692 0.0243 0.0000
vt 0.2033 0.3835 0.0000
vt 0.2545 0.3836 0.0000
vt 0.4899 0.0252 0.0000
vt 0.5393 0.0248 0.0000
vt 0.5888 0.0243 0.0000
vt 0.7484 0.4002 0.0000
vt 0.7996 0.4003 0.0000
vt 0.3819 0.4300 0.0000
vt 0.4314 0.4297 0.0000
vt 0.4808 0.4294 0.0000
vt 0.6091 0.4156 0.0000
vt 0.6603 0.4147 0.0000
vt 0.2804 0.0253 0.0000
vt 0.3299 0.0248 0.0000
vt 0.3793 0.0243 0.0000
vt 0.6767 0.0244 0.0000
vt 0.7279 0.0243 0.0000
vt 0.0703 0.0257 0.0000
vt 0.1213 0.8782 0.0000
vt 0.0274 0.9320 0.0000
vt 0.0237 0.8779 0.0000
vt 0.0669 0.9718 0.0000
vt 0.1210 0.9757 0.0000
vt 0.1750 0.9721 0.0000
vt 0.2148 0.9325 0.0000
vt 0.2188 0.8785 0.0000
vt 0.2151 0.8244 0.0000
vt 0.1756 0.7847 0.0000
vt 0.1215 0.7807 0.0000
vt 0.0675 0.7843 0.0000
vt 0.0277 0.8239 0.0000
# 126 texture coords

o RainbowRock_Inside
g RainbowRock_Inside
usemtl 03___Default
s 1
f 1/1/1 2/2/2 3/3/3 
f 1/1/1 3/3/3 4/4/4 
f 1/1/1 4/4/4 5/5/5 
f 1/1/1 5/5/5 6/6/6 
f 1/1/1 6/6/6 7/7/7 
f 1/1/1 7/7/7 8/8/8 
f 1/1/1 8/8/8 9/9/9 
f 1/1/1 9/9/9 10/10/10 
f 1/1/1 10/10/10 11/11/11 
f 1/1/1 11/11/11 12/12/12 
f 1/1/1 12/12/12 13/13/13 
f 1/1/1 13/13/13 2/2/2 
f 2/14/2 14/15/14 15/16/15 3/17/3 
f 3/18/3 15/19/15 16/20/16 4/21/4 
f 4/22/4 16/23/16 17/24/17 5/25/5 
f 5/25/5 17/24/17 18/26/18 6/27/6 
f 6/28/6 18/29/18 19/30/19 7/31/7 
f 7/32/7 19/33/19 20/34/20 8/35/8 
f 8/35/8 20/34/20 21/36/21 9/37/9 
f 9/38/9 21/39/21 22/40/22 10/41/10 
f 10/42/10 22/43/22 23/44/23 11/45/11 
f 11/45/11 23/44/23 24/46/24 12/47/12 
f 12/48/12 24/49/24 25/50/25 13/51/13 
f 13/52/13 25/53/25 14/15/14 2/14/2 
f 14/15/14 26/54/26 27/55/27 15/16/15 
f 15/19/15 27/56/27 28/57/28 16/20/16 
f 16/23/16 28/58/28 29/59/29 17/24/17 
f 17/24/17 29/59/29 30/60/30 18/26/18 
f 18/29/18 30/61/30 31/62/31 19/30/19 
f 19/33/19 31/63/31 32/64/32 20/34/20 
f 20/34/20 32/64/32 33/65/33 21/36/21 
f 21/39/21 33/66/33 34/67/34 22/40/22 
f 22/43/22 34/68/34 35/69/35 23/44/23 
f 23/44/23 35/69/35 36/70/36 24/46/24 
f 24/49/24 36/71/36 37/72/37 25/50/25 
f 25/53/25 37/73/37 26/54/26 14/15/14 
f 26/54/26 38/74/38 39/75/39 27/55/27 
f 27/56/27 39/76/39 40/77/40 28/57/28 
f 28/58/28 40/78/40 41/79/41 29/59/29 
f 29/59/29 41/79/41 42/80/42 30/60/30 
f 30/61/30 42/81/42 43/82/43 31/62/31 
f 31/63/31 43/83/43 44/84/44 32/64/32 
f 32/64/32 44/84/44 45/85/45 33/65/33 
f 33/66/33 45/86/45 46/87/46 34/67/34 
f 34/68/34 46/88/46 47/89/47 35/69/35 
f 35/69/35 47/89/47 48/90/48 36/70/36 
f 36/71/36 48/91/48 49/92/49 37/72/37 
f 37/73/37 49/93/49 38/74/38 26/54/26 
f 38/74/38 50/94/50 51/95/51 39/75/39 
f 39/76/39 51/96/51 52/97/52 40/77/40 
f 40/78/40 52/98/52 53/99/53 41/79/41 
f 41/79/41 53/99/53 54/100/54 42/80/42 
f 42/81/42 54/101/54 55/102/55 43/82/43 
f 43/83/43 55/103/55 56/104/56 44/84/44 
f 44/84/44 56/104/56 57/105/57 45/85/45 
f 45/86/45 57/106/57 58/107/58 46/87/46 
f 46/88/46 58/108/58 59/109/59 47/89/47 
f 47/89/47 59/109/59 60/110/60 48/90/48 
f 48/91/48 60/111/60 61/112/61 49/92/49 
f 49/93/49 61/113/61 50/94/50 38/74/38 
f 62/114/62 51/115/51 50/116/50 
f 62/114/62 52/117/52 51/115/51 
f 62/114/62 53/118/53 52/117/52 
f 62/114/62 54/119/54 53/118/53 
f 62/114/62 55/120/55 54/119/54 
f 62/114/62 56/121/56 55/120/55 
f 62/114/62 57/122/57 56/121/56 
f 62/114/62 58/123/58 57/122/57 
f 62/114/62 59/124/59 58/123/58 
f 62/114/62 60/125/60 59/124/59 
f 62/114/62 61/126/61 60/125/60 
f 62/114/62 50/116/50 61/126/61 
# 48 polygons - 24 triangles

