# 3ds Max Wavefront OBJ Exporter v0.99 - (c)2007 guruware
# File Created: 20.07.2026 21:27:27

mtllib PotionBottle.mtl

#
# object Cylinder001
#

v  0.5779 3.0098 0.0000
v  0.4087 3.0098 -0.4087
v  0.4087 4.1346 -0.4087
v  0.5779 4.1346 0.0000
v  -0.0000 3.0098 -0.5779
v  -0.0000 4.1346 -0.5779
v  -0.4087 3.0098 -0.4087
v  -0.4087 4.1346 -0.4087
v  -0.5779 3.0098 0.0000
v  -0.5779 4.1346 0.0000
v  -0.4087 3.0098 0.4087
v  -0.4087 4.1346 0.4087
v  0.0000 3.0098 0.5779
v  0.0000 4.1346 0.5779
v  0.4087 3.0098 0.4087
v  0.4087 4.1346 0.4087
v  1.0852 2.7706 0.0000
v  0.7674 2.7706 -0.7674
v  -0.0000 2.7706 -1.0852
v  -0.7674 2.7706 -0.7674
v  -1.0852 2.7706 0.0000
v  -0.7674 2.7706 0.7674
v  0.0000 2.7706 1.0852
v  0.7674 2.7706 0.7674
v  1.1693 1.9686 -1.1693
v  1.6536 1.9686 0.0000
v  1.7022 1.3900 0.0000
v  1.2036 1.3900 -1.2036
v  -0.0000 1.9686 -1.6536
v  -0.0000 1.3900 -1.7022
v  -1.1693 1.9686 -1.1693
v  -1.2036 1.3900 -1.2036
v  -1.6536 1.9686 0.0000
v  -1.7022 1.3900 0.0000
v  -1.1693 1.9686 1.1693
v  -1.2036 1.3900 1.2036
v  0.0000 1.9686 1.6536
v  0.0000 1.3900 1.7022
v  1.1693 1.9686 1.1693
v  1.2036 1.3900 1.2036
v  1.6301 0.9515 0.0000
v  1.1527 0.9515 -1.1527
v  -0.0000 0.9515 -1.6301
v  -1.1527 0.9515 -1.1527
v  -1.6301 0.9515 0.0000
v  -1.1527 0.9515 1.1527
v  0.0000 0.9515 1.6301
v  1.1527 0.9515 1.1527
v  1.4234 0.5441 0.0000
v  1.0065 0.5441 -1.0065
v  -0.0000 0.5441 -1.4234
v  -1.0065 0.5441 -1.0065
v  -1.4234 0.5441 0.0000
v  -1.0065 0.5441 1.0065
v  0.0000 0.5441 1.4234
v  1.0065 0.5441 1.0065
v  1.1695 0.2755 0.0000
v  0.8270 0.2755 -0.8270
v  0.0000 0.2755 -1.1695
v  -0.8270 0.2755 -0.8270
v  -1.1695 0.2755 0.0000
v  -0.8270 0.2755 0.8270
v  0.0000 0.2755 1.1695
v  0.8270 0.2755 0.8270
v  0.5395 0.0496 -0.5395
v  0.7630 0.0496 0.0000
v  -0.0000 0.0496 0.0000
v  -0.0000 0.0496 -0.7630
v  -0.5395 0.0496 -0.5395
v  -0.7630 0.0496 0.0000
v  -0.5395 0.0496 0.5395
v  -0.0000 0.0496 0.7630
v  0.5395 0.0496 0.5395
v  1.0411 2.3685 -1.0411
v  1.4723 2.3685 0.0000
v  -0.0000 2.3685 -1.4723
v  -1.0411 2.3685 -1.0411
v  -1.4723 2.3685 0.0000
v  -1.0411 2.3685 1.0411
v  0.0000 2.3685 1.4723
v  1.0411 2.3685 1.0411
v  0.4561 4.2885 -0.4561
v  0.6450 4.2885 0.0000
v  -0.0000 4.2885 -0.6450
v  -0.4561 4.2885 -0.4561
v  -0.6450 4.2885 0.0000
v  -0.4561 4.2885 0.4561
v  0.0000 4.2885 0.6450
v  0.4561 4.2885 0.4561
v  0.4087 4.4220 -0.4087
v  0.5779 4.4220 0.0000
v  -0.0000 4.4220 -0.5779
v  -0.4087 4.4220 -0.4087
v  -0.5779 4.4220 0.0000
v  -0.4087 4.4220 0.4087
v  0.0000 4.4220 0.5779
v  0.4087 4.4220 0.4087
v  0.2829 4.4220 -0.2829
v  0.4001 4.4220 0.0000
v  -0.0000 4.4220 -0.4001
v  -0.2829 4.4220 -0.2829
v  -0.4001 4.4220 0.0000
v  -0.2829 4.4220 0.2829
v  0.0000 4.4220 0.4001
v  0.2829 4.4220 0.2829
v  0.0000 4.4220 0.0000
# 106 vertices

vn 0.7967 0.6044 -0.0000
vn 0.5633 0.6044 -0.5633
vn 0.6906 -0.2149 -0.6906
vn 0.9766 -0.2149 -0.0000
vn 0.0000 0.6044 -0.7967
vn -0.0000 -0.2149 -0.9766
vn -0.5633 0.6044 -0.5633
vn -0.6906 -0.2149 -0.6906
vn -0.7967 0.6044 -0.0000
vn -0.9766 -0.2149 -0.0000
vn -0.5633 0.6044 0.5633
vn -0.6906 -0.2149 0.6906
vn -0.0000 0.6044 0.7967
vn -0.0000 -0.2149 0.9766
vn 0.5633 0.6044 0.5634
vn 0.6906 -0.2149 0.6906
vn 0.6111 0.7915 -0.0000
vn 0.4321 0.7915 -0.4321
vn -0.0000 0.7915 -0.6111
vn -0.4321 0.7915 -0.4321
vn -0.6111 0.7915 -0.0000
vn -0.4321 0.7915 0.4321
vn -0.0000 0.7915 0.6111
vn 0.4321 0.7915 0.4321
vn 0.6860 0.2424 -0.6860
vn 0.9702 0.2424 -0.0000
vn 0.9993 -0.0384 -0.0000
vn 0.7066 -0.0384 -0.7066
vn 0.0000 0.2424 -0.9702
vn -0.0000 -0.0384 -0.9993
vn -0.6860 0.2424 -0.6860
vn -0.7066 -0.0384 -0.7066
vn -0.9702 0.2424 0.0000
vn -0.9993 -0.0384 0.0000
vn -0.6860 0.2424 0.6860
vn -0.7066 -0.0384 0.7066
vn -0.0000 0.2424 0.9702
vn 0.0000 -0.0384 0.9993
vn 0.6860 0.2424 0.6860
vn 0.7066 -0.0384 0.7066
vn 0.9538 -0.3005 -0.0000
vn 0.6744 -0.3005 -0.6744
vn -0.0000 -0.3005 -0.9538
vn -0.6744 -0.3005 -0.6744
vn -0.9538 -0.3005 -0.0000
vn -0.6744 -0.3005 0.6744
vn 0.0000 -0.3005 0.9538
vn 0.6744 -0.3005 0.6744
vn 0.8287 -0.5597 0.0000
vn 0.5860 -0.5597 -0.5860
vn 0.0000 -0.5597 -0.8287
vn -0.5860 -0.5597 -0.5860
vn -0.8287 -0.5597 0.0000
vn -0.5860 -0.5597 0.5860
vn 0.0000 -0.5597 0.8287
vn 0.5860 -0.5597 0.5860
vn 0.6359 -0.7718 -0.0000
vn 0.4497 -0.7718 -0.4497
vn 0.0000 -0.7718 -0.6359
vn -0.4497 -0.7718 -0.4497
vn -0.6359 -0.7718 -0.0000
vn -0.4497 -0.7718 0.4497
vn 0.0000 -0.7718 0.6359
vn 0.4497 -0.7718 0.4497
vn 0.2175 -0.9515 -0.2175
vn 0.3076 -0.9515 0.0000
vn 0.0000 -1.0000 -0.0000
vn -0.0000 -0.9515 -0.3076
vn -0.2175 -0.9515 -0.2175
vn -0.3076 -0.9515 0.0000
vn -0.2175 -0.9515 0.2175
vn -0.0000 -0.9515 0.3076
vn 0.2175 -0.9515 0.2175
vn 0.5939 0.5428 -0.5939
vn 0.8398 0.5428 0.0000
vn -0.0000 0.5428 -0.8398
vn -0.5939 0.5428 -0.5939
vn -0.8398 0.5428 0.0000
vn -0.5939 0.5428 0.5939
vn -0.0000 0.5428 0.8398
vn 0.5939 0.5428 0.5939
vn 0.7069 0.0248 -0.7069
vn 0.9997 0.0248 -0.0000
vn -0.0000 0.0248 -0.9997
vn -0.7069 0.0248 -0.7069
vn -0.9997 0.0248 0.0000
vn -0.7069 0.0248 0.7069
vn -0.0000 0.0248 0.9997
vn 0.7069 0.0248 0.7069
vn 0.4293 0.7946 -0.4293
vn 0.6071 0.7946 -0.0000
vn 0.0000 0.7946 -0.6071
vn -0.4293 0.7946 -0.4293
vn -0.6071 0.7946 0.0000
vn -0.4293 0.7946 0.4293
vn -0.0000 0.7946 0.6071
vn 0.4293 0.7946 0.4293
vn 0.0000 1.0000 0.0000
vn 0.0000 1.0000 -0.0000
vn -0.0000 1.0000 0.0000
# 100 vertex normals

vt 0.7500 0.0000 1.0000
vt 0.8750 0.0000 1.0000
vt 0.8750 1.0000 1.0000
vt 0.7500 1.0000 1.0000
vt -0.1250 0.0000 1.0000
vt 0.0000 0.0000 1.0000
vt 0.0000 1.0000 1.0000
vt -0.1250 1.0000 1.0000
vt 0.1250 0.0000 1.0000
vt 0.1250 1.0000 1.0000
vt 0.2500 0.0000 1.0000
vt 0.2500 1.0000 1.0000
vt 0.3750 0.0000 1.0000
vt 0.3750 1.0000 1.0000
vt 0.5000 0.0000 1.0000
vt 0.5000 1.0000 1.0000
vt 0.6250 0.0000 1.0000
vt 0.6250 1.0000 1.0000
vt 0.8491 0.0000 1.0000
vt 0.0388 0.0000 1.0000
vt -0.0604 0.0000 1.0000
vt 0.1875 0.0000 1.0000
vt 0.1379 0.0000 1.0000
vt 0.2371 0.0000 1.0000
vt 0.3362 0.0000 1.0000
vt 0.4353 0.0000 1.0000
vt 0.6509 0.0000 1.0000
vt 0.5517 0.0000 1.0000
vt 0.7803 1.0000 0.4142
vt 0.5214 1.0000 -0.4142
vt 0.2500 1.0000 -1.0000
vt 0.1250 1.0000 -1.0000
vt 0.2197 1.0000 -0.4142
vt 0.4741 1.0000 0.0976
vt 0.6509 1.0000 0.0000
# 35 texture coords

o Cylinder001
g Cylinder001
usemtl 01___Default
s 1
f 1/1/1 2/2/2 3/3/3 4/4/4 
f 2/5/2 5/6/5 6/7/6 3/8/3 
f 5/6/5 7/9/7 8/10/8 6/7/6 
f 7/9/7 9/11/9 10/12/10 8/10/8 
f 9/11/9 11/13/11 12/14/12 10/12/10 
f 11/13/11 13/15/13 14/16/14 12/14/12 
f 13/15/13 15/17/15 16/18/16 14/16/14 
f 15/17/15 1/1/1 4/4/4 16/18/16 
s 2
f 2/2/2 1/1/1 17/1/17 18/2/18 
f 5/6/5 2/5/2 18/5/18 19/6/19 
f 7/9/7 5/6/5 19/6/19 20/9/20 
f 9/11/9 7/9/7 20/9/20 21/11/21 
f 11/13/11 9/11/9 21/11/21 22/13/22 
f 13/15/13 11/13/11 22/13/22 23/15/23 
f 15/17/15 13/15/13 23/15/23 24/17/24 
f 1/1/1 15/17/15 24/17/24 17/1/17 
f 25/2/25 26/1/26 27/1/27 28/2/28 
f 29/6/29 25/5/25 28/5/28 30/6/30 
f 31/9/31 29/6/29 30/6/30 32/9/32 
f 33/11/33 31/9/31 32/9/32 34/11/34 
f 35/13/35 33/11/33 34/11/34 36/13/36 
f 37/15/37 35/13/35 36/13/36 38/15/38 
f 39/17/39 37/15/37 38/15/38 40/17/40 
f 26/1/26 39/17/39 40/17/40 27/1/27 
f 28/2/28 27/1/27 41/1/41 42/2/42 
f 30/6/30 28/5/28 42/5/42 43/6/43 
f 32/9/32 30/6/30 43/6/43 44/9/44 
f 34/11/34 32/9/32 44/9/44 45/11/45 
f 36/13/36 34/11/34 45/11/45 46/13/46 
f 38/15/38 36/13/36 46/13/46 47/15/47 
f 40/17/40 38/15/38 47/15/47 48/17/48 
f 27/1/27 40/17/40 48/17/48 41/1/41 
f 42/2/42 41/1/41 49/1/49 50/2/50 
f 43/6/43 42/5/42 50/5/50 51/6/51 
f 44/9/44 43/6/43 51/6/51 52/9/52 
f 45/11/45 44/9/44 52/9/52 53/11/53 
f 46/13/46 45/11/45 53/11/53 54/13/54 
f 47/15/47 46/13/46 54/13/54 55/15/55 
f 48/17/48 47/15/47 55/15/55 56/17/56 
f 41/1/41 48/17/48 56/17/56 49/1/49 
f 50/2/50 49/1/49 57/1/57 58/2/58 
f 51/6/51 50/5/50 58/5/58 59/6/59 
f 52/9/52 51/6/51 59/6/59 60/9/60 
f 53/11/53 52/9/52 60/9/60 61/11/61 
f 54/13/54 53/11/53 61/11/61 62/13/62 
f 55/15/55 54/13/54 62/13/62 63/15/63 
f 56/17/56 55/15/55 63/15/63 64/17/64 
f 49/1/49 56/17/56 64/17/64 57/1/57 
f 65/19/65 66/1/66 67/1/67 
f 68/20/68 65/21/65 67/22/67 
f 69/23/69 68/20/68 67/22/67 
f 70/24/70 69/23/69 67/22/67 
f 71/25/71 70/24/70 67/22/67 
f 72/26/72 71/25/71 67/22/67 
f 73/27/73 72/28/72 67/1/67 
f 66/1/66 73/27/73 67/1/67 
f 74/2/74 75/1/75 26/1/26 25/2/25 
f 76/6/76 74/5/74 25/5/25 29/6/29 
f 77/9/77 76/6/76 29/6/29 31/9/31 
f 78/11/78 77/9/77 31/9/31 33/11/33 
f 79/13/79 78/11/78 33/11/33 35/13/35 
f 80/15/80 79/13/79 35/13/35 37/15/37 
f 81/17/81 80/15/80 37/15/37 39/17/39 
f 75/1/75 81/17/81 39/17/39 26/1/26 
f 17/1/17 75/1/75 74/2/74 18/2/18 
f 18/5/18 74/5/74 76/6/76 19/6/19 
f 19/6/19 76/6/76 77/9/77 20/9/20 
f 20/9/20 77/9/77 78/11/78 21/11/21 
f 21/11/21 78/11/78 79/13/79 22/13/22 
f 22/13/22 79/13/79 80/15/80 23/15/23 
f 23/15/23 80/15/80 81/17/81 24/17/24 
f 24/17/24 81/17/81 75/1/75 17/1/17 
s 1
f 4/4/4 3/3/3 82/3/82 83/4/83 
f 3/3/3 6/29/6 84/29/84 82/3/82 
f 6/29/6 8/30/8 85/30/85 84/29/84 
f 8/30/8 10/31/10 86/31/86 85/30/85 
f 10/31/10 12/32/12 87/32/87 86/31/86 
f 12/32/12 14/33/14 88/33/88 87/32/87 
f 14/33/14 16/18/16 89/18/89 88/33/88 
f 16/18/16 4/4/4 83/4/83 89/18/89 
s 2
f 83/4/83 82/3/82 90/3/90 91/4/91 
f 82/3/82 84/29/84 92/29/92 90/3/90 
f 84/29/84 85/30/85 93/30/93 92/29/92 
f 85/30/85 86/31/86 94/31/94 93/30/93 
f 86/31/86 87/32/87 95/32/95 94/31/94 
f 87/32/87 88/33/88 96/33/96 95/32/95 
f 88/33/88 89/18/89 97/18/97 96/33/96 
f 89/18/89 83/4/83 91/4/91 97/18/97 
s 1
f 91/4/91 90/3/90 98/3/98 99/4/99 
f 90/3/90 92/29/92 100/29/100 98/3/98 
f 92/29/92 93/30/93 101/30/100 100/29/100 
f 93/30/93 94/31/94 102/31/100 101/30/100 
f 94/31/94 95/32/95 103/32/98 102/31/100 
f 95/32/95 96/33/96 104/33/98 103/32/98 
f 96/33/96 97/18/97 105/18/100 104/33/98 
f 97/18/97 91/4/91 99/4/99 105/18/100 
s 2
f 58/2/58 57/1/57 66/1/66 65/19/65 
f 59/6/59 58/5/58 65/21/65 68/20/68 
f 60/9/60 59/6/59 68/20/68 69/23/69 
f 61/11/61 60/9/60 69/23/69 70/24/70 
f 62/13/62 61/11/61 70/24/70 71/25/71 
f 63/15/63 62/13/62 71/25/71 72/26/72 
f 64/17/64 63/15/63 72/28/72 73/27/73 
f 57/1/57 64/17/64 73/27/73 66/1/66 
s off
f 99/4/99 98/3/98 106/34/98 
f 98/3/98 100/29/100 106/34/98 
f 100/29/100 101/30/100 106/35/98 
f 101/30/100 102/31/100 106/35/98 
f 102/31/100 103/32/98 106/34/98 
f 103/32/98 104/33/98 106/34/98 
f 104/33/98 105/18/100 106/34/98 
f 105/18/100 99/4/99 106/34/98 
# 96 polygons - 16 triangles

